<svg width="133" height="133" viewBox="0 0 133 133" fill="none" xmlns="http://www.w3.org/2000/svg">
<path d="M66.5 113.76C50.0902 113.76 35.5841 105.358 27.1166 92.7558C27.3136 79.628 53.3722 72.4077 66.5 72.4077C79.6277 72.4077 105.686 79.628 105.883 92.7558C101.544 99.2173 95.6821 104.513 88.8143 108.176C81.9465 111.838 74.2834 113.756 66.5 113.76ZM66.5 20.553C71.7225 20.553 76.7312 22.6276 80.4241 26.3205C84.117 30.0135 86.1916 35.0221 86.1916 40.2447C86.1916 45.4672 84.117 50.4759 80.4241 54.1688C76.7312 57.8617 71.7225 59.9363 66.5 59.9363C61.2774 59.9363 56.2688 57.8617 52.5759 54.1688C48.883 50.4759 46.8083 45.4672 46.8083 40.2447C46.8083 35.0221 48.883 30.0135 52.5759 26.3205C56.2688 22.6276 61.2774 20.553 66.5 20.553ZM66.5 0.861328C57.8801 0.861328 49.3447 2.55913 41.3811 5.85779C33.4174 9.15645 26.1814 13.9914 20.0863 20.0865C7.77659 32.3962 0.861084 49.0917 0.861084 66.5002C0.861084 83.9087 7.77659 100.604 20.0863 112.914C26.1814 119.009 33.4174 123.844 41.3811 127.143C49.3447 130.441 57.8801 132.139 66.5 132.139C83.9085 132.139 100.604 125.224 112.914 112.914C125.223 100.604 132.139 83.9087 132.139 66.5002C132.139 30.2019 102.601 0.861328 66.5 0.861328Z" fill="#EBEBEB"/>
</svg>
